<svg id="Colour_-_Dark" data-name="Colour - Dark" xmlns="http://www.w3.org/2000/svg" viewBox="0 0 362.45 73.85"><defs><style>.cls-1{fill:#171717;}.cls-2{fill:#672f25;}.cls-3{fill:#a16a38;}</style></defs><title>Dark Button</title><g id="Frame"><path id="Fill" class="cls-1" d="M352.69,23.85h0l-1.84-.58.8-1.76a14,14,0,0,0,1.18-6.21A17.13,17.13,0,0,0,348,4.1a15.14,15.14,0,0,1-3.52,2.48c-3.28,1.69-8,1.69-10.48,1.69H28.46C25,8.27,21,8.14,18,6.6a14.67,14.67,0,0,1-3.56-2.51A16.89,16.89,0,0,0,9.58,15.31a14.08,14.08,0,0,0,1.19,6.21l.77,1.75-1.82.57A13.67,13.67,0,0,0,0,36.89,13.52,13.52,0,0,0,9.7,50l1.84.55-.76,1.77a14.38,14.38,0,0,0-1.2,6.22,16.85,16.85,0,0,0,4.86,11.27A15.1,15.1,0,0,1,18,67.18c2.87-1.55,7.41-1.66,8.74-1.66a17.76,17.76,0,0,1,1.8.08H334.09c.3,0,.89,0,2.22,0,4.28,0,6.77.86,8.11,1.58a15.85,15.85,0,0,1,3.51,2.55l.09,0a16.94,16.94,0,0,0,4.81-11.25,14.4,14.4,0,0,0-1.19-6.21l-.79-1.77,1.86-.55a13.62,13.62,0,0,0,0-26.1Z"/><path id="Border_2" data-name="Border 2" class="cls-2" d="M352.69,23.85h0l-1.84-.58.8-1.76a14,14,0,0,0,1.18-6.21A17.13,17.13,0,0,0,348,4.1a15.14,15.14,0,0,1-3.52,2.48c-3.28,1.69-8,1.69-10.48,1.69H28.46C25,8.27,21,8.14,18,6.6a14.67,14.67,0,0,1-3.56-2.51A16.89,16.89,0,0,0,9.58,15.31a14.08,14.08,0,0,0,1.19,6.21l.77,1.75-1.82.57A13.67,13.67,0,0,0,0,36.89,13.52,13.52,0,0,0,9.7,50l1.84.55-.76,1.77a14.38,14.38,0,0,0-1.2,6.22,16.85,16.85,0,0,0,4.86,11.27A15.1,15.1,0,0,1,18,67.18c2.87-1.55,7.41-1.66,8.74-1.66a17.76,17.76,0,0,1,1.8.08H334.09c.3,0,.89,0,2.22,0,4.28,0,6.77.86,8.11,1.58a15.85,15.85,0,0,1,3.51,2.55l.09,0a16.94,16.94,0,0,0,4.81-11.25,14.4,14.4,0,0,0-1.19-6.21l-.79-1.77,1.86-.55a13.62,13.62,0,0,0,0-26.1ZM352,47.67,347.59,49l1.87,4.23a11.81,11.81,0,0,1,1,5.17,14.55,14.55,0,0,1-2.74,8,24.72,24.72,0,0,0-2.13-1.35,19.65,19.65,0,0,0-9.27-1.89c-1.28,0-1.91,0-2.29,0H28.61c-.31,0-1-.08-1.91-.08-2.33,0-6.71.25-9.89,2-.78.44-1.48.89-2.1,1.32a14.4,14.4,0,0,1-2.76-8,12.19,12.19,0,0,1,1-5.2L14.79,49l-4.4-1.32a11.16,11.16,0,0,1-8-10.78,11.3,11.3,0,0,1,8-10.78l4.37-1.37L13,20.56a11.81,11.81,0,0,1-1-5.18,14.28,14.28,0,0,1,2.8-8A23.89,23.89,0,0,0,16.9,8.7c3.49,1.8,7.79,2,11.56,2H334c2.72,0,7.78,0,11.59-2a23.26,23.26,0,0,0,2.1-1.28,14.5,14.5,0,0,1,2.78,8,11.49,11.49,0,0,1-1,5.16l-1.91,4.2L352,26.12a11.29,11.29,0,0,1,8,10.77A11.17,11.17,0,0,1,352,47.67Z"/><path id="Border_1" data-name="Border 1" class="cls-3" d="M352,26.12l-4.41-1.39,1.91-4.2a11.49,11.49,0,0,0,1-5.16,14.5,14.5,0,0,0-2.78-8,23.26,23.26,0,0,1-2.1,1.28c-3.81,2-8.87,2-11.59,2H28.46c-3.77,0-8.07-.15-11.56-2a23.89,23.89,0,0,1-2.15-1.3,14.28,14.28,0,0,0-2.8,8,11.81,11.81,0,0,0,1,5.18l1.85,4.18-4.37,1.37a11.3,11.3,0,0,0-8,10.78,11.16,11.16,0,0,0,8,10.78L14.79,49,13,53.21a12.19,12.19,0,0,0-1,5.2,14.4,14.4,0,0,0,2.76,8c.62-.43,1.32-.88,2.1-1.32,3.18-1.71,7.56-2,9.89-2,.92,0,1.6,0,1.91.08H334c.38,0,1,0,2.29,0a19.65,19.65,0,0,1,9.27,1.89,24.72,24.72,0,0,1,2.13,1.35,14.55,14.55,0,0,0,2.74-8,11.81,11.81,0,0,0-1-5.17L347.59,49,352,47.67a11.17,11.17,0,0,0,8-10.78A11.29,11.29,0,0,0,352,26.12Zm-.28,20.46L346,48.28l2.39,5.41a10.77,10.77,0,0,1,.89,4.68,13.41,13.41,0,0,1-1.92,6.48l-1.23-.74a20.8,20.8,0,0,0-9.86-2c-1.21,0-1.91,0-2.33,0H28.72c-.64-.06-1.31-.09-2-.09-2,0-6.91.2-10.41,2.08L15,64.85a13.32,13.32,0,0,1-1.95-6.48A10.88,10.88,0,0,1,14,53.66l2.33-5.39-5.62-1.68a10,10,0,0,1-7.18-9.7,10.17,10.17,0,0,1,7.24-9.7l5.57-1.75L14,20.1a10.73,10.73,0,0,1-.89-4.69,13.1,13.1,0,0,1,2-6.46l1.29.74c3.75,1.93,8.22,2.09,12.12,2.09H334c2.82,0,8.06,0,12.09-2.08q.68-.37,1.29-.75a13.28,13.28,0,0,1,2,6.47,10.44,10.44,0,0,1-.87,4.65L346,25.43l5.62,1.77a10.17,10.17,0,0,1,7.26,9.69A10,10,0,0,1,351.7,46.58Z"/></g><circle class="cls-3" cx="338.28" cy="36.9" r="2.3"/><circle class="cls-3" cx="26.43" cy="36.9" r="2.3"/></svg>