<svg version="1.1" id="Слой_1" xmlns="http://www.w3.org/2000/svg" x="0" y="0" viewBox="0 0 412.5 105" xml:space="preserve" preserveAspectRatio="xMidYMin"><style>.st0{fill:#fff}</style><path class="st0" d="M304.2 97.7c.3.3.6.6 1 .8-.3-1.6-.1.6.4-1.6 2.4-.2-.4-.3 2 .2h1v.1c.2.6-.1.3.4.6l.3-.8c.5 0 1 .1 1.4.2 1.6 0 0-1 4-1.4 0 .7-.4.6 1.8 1.2-.1.4-.1.2-.3.5-.4.7 0-.4-.3.5.7.1 1.4.3 2.1.5 1.7.4 0-.1 1.9-.1 0-.3-.1-.7-.2-1 .4 0 .8-.1 1.2-.2l.7-.4c.2.7.2.5-.2 1 1.3 0 .6-.4 1.1-.9l.2-.2.1-.1h.1c.5-.1 1-.1 1.6-.1 1.4.2-.1.2 1.2.6l1.4-.4c0 .6 0 .4.2.8.7-.5.4-.3 1.1-.3.6 0 1.1 0 1.7.1-.2.2-.4.3-.6.4l.3.1c.2.1.4.1.6.1.2-.7.3-.7 1-.8l1.2-.2c.2 0 1 .1 1 .1h.1l.4.1h.1l2.8.1c-.3 1-.3.2-.6 1.2 1.8-1 1.3-1.3 2-1.4.7-.1.6.1.8.4-.3.5-.2.5-1 .6v.6c.7.1.4.3.9-.1 1-.6.5-1.4 3.1-1.5.1.4-.1.2.2.4h.6c1.5.4 1.3.1 2 .6.4-.8-.1-.5.6-1 .2.1.4.2.6.4.3.2.2.1.6.2.2-.8.1-.6 1-.6v.4h.4c.4-.1.2-.1.4-.2 1-.1 1.7-.9 2.1 0 .5.9 0-.2.1.2.2 1.1-.4-.5 0 .3.5-.3.2-.2 1-.2.2-.5.1-.2 0-.8.6.1.2 0 .4.1.4.3.6.8.6 1.3l1.2.3c.4.2-.2.1.3 0s-.3 0 .4-.1c1.3-.2.7.5 2.7-.5l-.5-.7.1-.1c1.4.1 2.8.3 4.2.6-.2.1 0 .1-.4.2h-.6l.4.4.2.2c1.1.5 2-.2 3-.2 1.5.1-.4.4 1.3.4.6 0 .9-.3 1.6-.4.1.5.3.5.6.8-.5-.1-.9-.2-1.4-.2v.4c.5 0 1.1.1 1.6.2 0-1.5-.3-1-.6-2 .9 0 3.3-.5 4.5-.3 1.7.4.2-.4 1.8 0 1.3.3 1 0 2.4.1s1.5.6 3.2.6c.3-.8-.2 0 .2-.8.4.1.9 0 1.3-.1 1.2-.5 2.5-.8 3.8-.7-.1.2-.8 1 .5.7l2-.5c.1.2.2.3.3.5l.1.1.1.1.1.1 1.2.3c.6 0 .2 0 .8-.2.2.6-.1.1.4.6.4-.1.2.1.4-.5v-.1l4.1.3s.7-.1.9-.1c.1-.3.2.1 0-.3l-.2-.4c1 0 .6.2 1-.4-.7-.2-.5-.1-.8-.6 1 0 1.4-.2 2.6-.2h2.8l.2-.8c.8.2 1.2 0 1.6.6-1.7 0-.9.4-2.6.4l1.7.2c.4.7.8.5 2.3 0 .7-.2.2-.2 1.1-.3l5.3.4c-.3.4-.2.2-.4.8-1.4 0-1.4.3-1.2-.6h-1.8c-.4 1.1-.7.1-1.4 1 1.8.1 3.6.2 5.4.1h3.4c.9-.1 1.8 0 2.7.1-.3-.6 0-.5 0-1.6l-4-.2.7-.4c.5-.4.1.1.1-.2V95c1.1-.1 2.1-.2 3.2-.2V-.5H-2.1v95.1c.3-.2.7-.2 1 0 .6.3.4.3 0 .8 1.1 0 1.4-.1 1.6.8-1.4-.8-.6 0-2.4 0v.6c1.6.2-.6.8 2 .8.5-1.3 1.2-.4.8-1.4.6.2.5.3.7.3.6 0-.3 0 .5-.3.7.2 1.5.3 2.2.2.3 1.1 1.6.5 3 1.2.2.6-.1.1.4.6.5-.1.3 0 .7-.5l.2-.1.6-.7c1.2-.9 2.9.4 4-.1-.2.6-.4.6-1.2.6v.5c1.4.1-.2.2 1.2.6.2-.5-.1.1-.2-.8l1.2-.2c-.1 1.4-.6 1.3 1.3 1.8h.1l2.5.4s.9-.2 1-.3l.7-.5.7-.6c1.3-.7 2.8-1 4.3-.9.6 0 1.3 0 1.9-.1v.5c.4-.3.4-.4.9-.5.5-.1.6.2.9.3.7.6.1.3 1.1.4.6-.5.3-.1.6-1.2 2.4-.2-.5-.3 2 .2h1c.2.4-.1.4.4.8l.2-.8c2.1 0 1.4.7 2.6-.4.8-.5 1.8-.8 2.8-.8 0 .7-.5.6 1.8 1.2-.2.7-.3.3-.6 1 .7.1 1.4.3 2.1.5 1.7.4 0-.1 1.9-.1 0-.3-.1-.7-.2-1 .4 0 .8-.1 1.2-.2v-.4c1.1.1.8.4.4 1 .4 0 .4.1.7-.1.3-.2.1-.2.2-.4s0-.3.5-.6c1.5-.8 3 .4 3 .4l1.4-.4c0 .6 0 .4.2.8l.8-.3h.1c.7-.1 1.4 0 2 .1-.2.2-.4.3-.6.4l.1.1.1.1c.2.1.4.1.5.1.3-1.1.7-.6 1.7-.8l4.1.3c.6.1-.6 0 .2 0h.3c.3-.1-.1 0 .5-.2-.3 1-.3.2-.6 1.2.5-.2 1-.6 1.4-1s.1-.3.6-.4c.6-.1.6.1.9.4-.4.5-.2.5-1 .6v.4c2 .4.2-1.5 3.8-1.6.1.3 0 .3.3.5h.3l.7.1h.1c1 .1.5-.1 1.2.4.4-.8-.1-.5.6-1 .2.1.4.2.6.4.3.2.2.1.6.2.2-.8.1-.6 1-.6l.8.2c1-.1 1.6-.9 2.1 0s0-.2.1.2c.3 1.1-.3-.5 0 .3.5-.3.2-.2 1-.2.2-.5.1-.2 0-.8 1 .1 0-.5 1 1-.5 0-.3.1-.5.1l-.3.1c-1.4.4-.7-.2-1.3.5.7.2 1.3.2 2 .2.2-.5.2-.1 0-.6H77.8l.4.2c.4.2-.2 0 .7-.1 1.3-.2.7.5 2.7-.5-.1-.5-.3-.5-.6-.8 1.4.1 2.8.3 4.2.6-.2.1 0 .1-.4.2h-.6l.4.4.2.2c1.1.5 2-.2 3-.2 1.5.1-.4.4 1.4.4.6 0 .9-.3 1.6-.4l.6.8c-.5-.1-.9-.2-1.4-.2v.5c.5 0 1.1.1 1.6.2 0-1.5-.3-1-.6-2 .5 0 1.1 0 1.6-.2 1.1-.2 2.3-.2 3.4 0 .9 0 0-.1.7-.2.4 0 .3 0 .6.1 1.3.3 1 0 2.4.1s1.5.6 3.2.6c.4-.8-.1 0 .2-.8.4.1.9 0 1.3-.1l.4-.2.3.3c1.1-.4 2.2-.5 3.3-.5-.1.6-.2.3 0 .8.9-.1.5-.4 1.1-.4l1.1-.2c.2.4.5.6.9.7l.1.1c.9.4.7.2 1.6 0 .3.6-.1.1.4.6.6-.2 0 .1.3-.2l.1-.4.7-.1 1.7.1v.6h.8v-.1c0-.1 0-.1.1-.2 0-.2-.1 0 .1-.3 1 .7.2.2 1.6.2.1-.3.2.1 0-.3l-.2-.4c.8 0 .5.1 1-.2-.5-.6-.3-.2-.8-.8 1.1.2 2.7-.6 4.3-.1l1.5.3c-.1.7 0 .1-.1.5s0-.2-.3.5c.7.1.6 0 1 .4-1.1 0-5-.4-5.9.4l11.9-.3c.8-.1 1.8 0 2.6 0 .3 0 .8-.1 1-.1l3.4.1-.1.1-.5.5c.9.1 1.7.1 2.6 0 .9-.2 1.9-.3 2.8-.2-.2-.5-.2-.1 0-.6-1.4.3-2.8.5-4.2.4h-.2c0-.3.9-.8 1.2-.9l2.5-.7c.6-.1 1.2-.1 1.8 0 .1-.5.2.3-.1-.2-.3-.5-.2.2-.1-.2.6-.3.4-.2 1.2-.2.1.1.1.2.1.3V96.1c.8-.2.3-.3 1-.3.3 0 .8.2 1.3.3 1.2.2.5-.1 1.6-.2h.8v1c.9-.6.8-1 2.8-1.2.1.7.1.7.8.8-.2-.8-1.1-1.2 1.2-1.4.4.6.6.5.8 1.4h-1.6c.2.9.8.8 1.5.5h.1c.3-.1.6-.1.9-.1-.5-1-.2-.8-.2-2.2 1.3 0 2.4-1.1 3.3-.3l.3.7c1.3.1 2.6 0 3.8-.2-.2.8-.4.6-.8 1.2.9.2 1.4.3 1.4-1 1-.1.5-.2 1.5-.1.6.1 1.4.5 2 .3 1-.3-.4.1.3-.1.1 0 .2-.1.4-.2.5-.2 1-.3 1.5-.4 0 0-.1 0-.1-.1-.1-.3 0 .1-.3-.1s-.2.1-.4-.4c.4-.2.7-.4 1.1-.5 1.2-.3 1 .3 1.1-.7l3.6-.2c1.4.3.6.3.7.5.3.5 0 .4.3 1.1 1.6-1 .6-.3 2.6-.2s1.2.2 1.1.4l-.1.1-.3.7c1.4-.1-.2-.1.6-.3l.7.2h.8l.2-.1c.4-.1-.5-.1.6-.2l-.7-.3-.1-.1c1-.1.5-.2 1.7-.1 2.1.2 1.4-.7 5 .1.4.2.9.2 1.4.2.9.1.6.2 1.4.4-.1 1.1-.6 1-1.4 1.2-.9.3-1.9.5-2.8.4.2.1 0 .1.5.2s.1 0 .6 0c1.5-.1 3 .1 3.8-.4s-.2-.1.7-.3v-.8h-.8c.4-.6 0-.1.4-.3 1.3-.5 6.1-.3 7.7-.3V94c1.1 0 2.2-.2 3.2-.4-.4 1.4-.8 0-2.2 1 .5 0 1 0 1.5.1s.5-.1.7.5c.5.3.5.5 1 .2.1-.4 0-.3.2-.6l.9.1c1.8.4.8-.8 4.4.4.7.2-.1.1.7.3l.6-.4c.4.3.3.4 1 .4.5 0 .5-.1 1.2-.2 1.8-.1 1.5 0 2.4.6-.2-1-.1-.3 0-.6l3.7-.1c1.4 0-.3.4 1.1.2s.2-1 1.9-.2c1.5.7.4-.3 2.2-.4 0 1.5-1.1 1.3-1.2 2.6.4-.1 2.6-1.8 2.8-2.4 1.6 0 .3.2 1.9-.1.9-.2.8.2 1.5.7.6-.5 1.2-.9 1.9-1.1 1.4-.3 2 .5 2.1-.9 1 .4-.2.1.8.4.4-.9-.1-.8 1.2-.8-.3.4-.8 1-.1 1.6.3.3.5.3.7.1.4-.4.1.1.1-.3l-.2-.4c.9.2 1.1.8 1.7.9.8.1 1.7 0 2.5-.1v.2c0 .3-.2-.3 0 .3.1.2 0 .3.7.4.3-.6.1-.7.3-1.3.1-.4.4-.5.7-.9.4.4 1 .6 1.6.6l-.3.3-.3.3c1-.2.6 0 1.8 0 0-.3-.1-.7-.2-1 1.5 0 1.1-.3 2.2-.4 0 .8.1.6-.2 1.2 1.1 0 1.7.2 2.2-.4-.5 0-.9.1-1.4.2.4-1.4 1-.2 2.7-.7 1-.4 2.1-.4 3.1-.1.3 1.2.1.5 0 1.6.3-.1.6-.2.9-.4.8-.3.7-.1.9-.1 1.4-.1.4-.3.7-1.1 1 .1.3.2 1.2.8.9.6.4-.1 1 1-1.2-.3-.4 0-1.6.2H249.3v.4c1.4 0 1.3.3 2.4.4l4.2.2c.8.1 1.2.5 2.1 0 .2-.1-.6 0 .4-.2h.8c0 .1-.1.4-.2.4-.1.5-.2 0 0 .4.5-.3.2-.2 1-.2.5.6.7 0 .9-.1.6-.4-.1-.3.9-.2 1 .1 6.1.3 6.5-.3v-.2l.1.1.2-.1.3-.1c-2 0-2.6-.4-6.1-.4.2-.7.9-1.2 1.6-1.2 1.2 0 .2.6 2.2.2 0 1.2-.1.6.4.8.2-.5.1-.5-.2-1l3-.1h1.1c.1 0 0-.1.5 0s.3.1.4.1c.8.2.4 0 .9 0 .3-.1.6 0 .8.2.5.4.4-.1-.1.7 1.1 0 1.4-.1 1.6.8-.8-.4-.5-.4-1.2-.2h-.1l-.5.1c-.6.2-.4-.1-.6.4s-.2-.2.2.2c1.1 1 .4.8 1.8.8.4-1.3 1.2-.4.8-1.4.6.2.5.3.8.3.6 0-.3 0 .5-.3.7.2 1.5.3 2.2.2.2.8.9 1 2 1v.1l2.7.7 1.2-1.3c1-.8 2.8.1 3.8.1-.4.6 0 .4-1 .4v.3c1.4.1-.2.2 1.2.6.2-.5-.1.1-.2-.8l1.2-.2c0 .8-.9 1.6 2 1.9 4.3.5 2.3-.5 4.6-1.3l.5-.1c3.5-1.1 1.5-.4 5.4-.7v.6c.4-.3.4-.4.9-.5h.4c.1 0 .2.1.3.1l.3.3z"/><path class="st0" d="M204.5 95.4c-.8 0-.9-.1-1.8-.2-2.3-.1.4-.3-1.4-.4v.4c-3 .1.1-.5-3.4.2-.6.1-1.2.3-1.8.3-.8 0-1-.6-1.6.3.9.1.7.3 1.8.1.6 0 1.1 0 1.6-.1v-.4c.7.2.3.2.9.4h1.1c.2.3 0 .3.5.4h1.1c0-.1-.1-.1 0-.8l3-.2zM389.6 101.9c-1.1-.5-2.4-.4-3.4.3l-.6.4c.8.2 1.6.3 2.4.4 1 .1 1.3-.4 1.6-1.1zM114 101.9c-1.3-.6-1.3-.4-2.8.1l-1.3.7c.8.2 1.6.3 2.4.4 1.1 0 1.4-.5 1.7-1.2zM373.6 102.3c-.4-1.5-1 .3-1.4-1.2h-.8l.1.8c.3 1.1 1.2.2 2.1.4zM98.1 102.3c-.4-1.5-1 .3-1.4-1.2h-.8c0 .3-.1 1.4.8 1.4s.2-.4 1.4-.2zM249.5 96.1c-.9 0-.7-.2-1.4-.2-.5.1-1.1.1-1.6.2v.4c2.4.2 2.4.5 3-.4zM352.9 98.3c-1.3-.4.7 0-.6-.4-.2.5.1.3-.4.4h-1v.4c.7.2 1.3.2 2 .2.2-.5.2-.1 0-.6zM399.5 100.1c-.5-.3-.7-.2-1.6-.2-.6 0-.4.1-.6.4.5.2 2.2.5 2.2-.2zM124 100.1c-.5-.3-.7-.2-1.6-.2-.6 0-.4.1-.6.4.4.2 2 .5 2.2-.2zM107.2 103.1v-.2l-1.6-.2c-.3.8.1.3-1.2.2v.4c1.2 0 1.6-.2 2.8-.2zM382.7 103.1v-.2l-1.6-.2c-.3.8.1.3-1.2.2v.4c1.3 0 1.7-.2 2.8-.2zM104.1 102.9h-2.4c.4.6 0 .4 1 .4h1.4v-.4zM379.7 102.9h-2.4c.4.6 0 .4 1 .4h1.4v-.4zM278.1 102.5c.7 1 1.1 1 2.2 1.6-.2-.7-.2-.6-.9-.9-.4-.3-.9-.5-1.3-.7zM1.6 102.5c.7 1 1.1 1 2.2 1.6-.2-.7-.2-.6-.9-.9-.4-.3-.9-.5-1.3-.7zM188.1 94.4v.4l-.2.4c1.1.3.9.6 1.4-.4-.7-.2-.6-.3-1.2-.4zM104.3 98.9c-.9-.2-1.1-.5-1.4.4.4.1 1.4.6 1.4-.4zM379.9 98.9c-.9-.2-1.2-.5-1.4.4.4.1 1.4.6 1.4-.4zM85.6 100.1l-2-.2v.4c1.1 0 1.1.2 2 .2v-.4zM89.3 101.3l.1.1.6.5c.5.3 1.1.2 1.5-.1-.7-.3-1.4-.5-2.2-.5zM364.9 101.3l.1.2.8.4c1 .2 1.1-.2 1.2-.2-.6-.2-1.4-.4-2.1-.4zM100.1 102.9c-2.8 0-2.9-.4-3.8.4l3.8-.4zM375.6 102.9c-1.5 0-2.9-.2-3.5.1-.6.4-.1.1-.3.3l3.8-.4zM162.5 96.9c-1.2 0-1.5.2-2.6.2v.2c1 0 2.1.2 2.6-.4zM161.1 97.7c-.9 0-1.1.2-2.2.2v.2h2.2v-.4zM174.5 93.4c-.8 0-.8-.1-1.4.2.2.3 0 .4.6.4s.7-.3.8-.6zM177.9 96.7c-.8 0-.5-.2-1.4-.2-.6 0-.4.1-.6.4h2v-.2zM370.6 101.7c-.4-.1-.8-.2-1.2-.2.4.6.3.6 1.2.6v-.4zM95 101.7c-.4-.1-.8-.2-1.2-.2.4.6.3.6 1.2.6v-.4zM99.7 100.9c-.4-.1-.9.1-1.2.4.2.3.1.2.2.6l1-1zM375.2 100.9c-.4-.1-.9.1-1.2.4.1.2.2.4.2.6l1-1zM364.1 99.3h-1.6c.2.1.1.1.3.3.2.2 1.2.2 1.3-.3zM88.5 99.3h-1.6c.1.1 0 .1.3.3.3.2 1.3.2 1.3-.3zM209.3 95.9c-1.3 0-1.4-.4-1.8.2h1.8v-.2zM89.3 101.3l.3-.4h-1.3v.4zM364.9 101.3l.2-.4h-1.2v.4zM273.6 96.1c-1 0-.8-.2-1.2.4h1.2v-.4zM11.9 98.1c-.7.1-.7.1-.8.8.7-.2.6-.1.8-.8zM287.4 98.1c-.7.1-.7.1-.8.8.7-.2.6-.1.8-.8zM101.7 101.7c-.8.1-.6-.1-.8.6h.8v-.6zM377.3 101.7c-.8.1-.6-.1-.8.6h.8v-.6zM355.7 99.3c-.6 0-.4.1-.6.4h1.5c-.6-.4-.4-.4-.9-.4zM80.2 99.3c-.6 0-.4.1-.6.4H81c-.2-.1-.1-.1-.3-.3-.2-.2.3-.1-.5-.1zM68.3 98.1l-1 .2v.8l1-1zM343.8 98.1l-1 .2v.8l1-1zM3.6 97.5c-.5-.6-.5-.6-1.2-.4l.4.3.1.1c.1 0 .5.2.7 0zM58 100.7h-.8v.4l.8.2zM344 101.5l-.4-.2c-.6 0-.4.1-.6.4.4.1.9.4 1-.2zM68.5 101.5l-.4-.2c-.6 0-.4.1-.6.4.3.1.9.4 1-.2zM378.9 101.1h1v.4h-1zM103.3 101.1h1v.4h-1z"/><path class="st0" d="M186.1 94.6h2v.2h-2zM359.2 99.9h1v.4h-1zM280.2 97.5c-.4-.6-.5-.6-1.2-.4l.1.1.7.4c.1 0 .3 0 .4-.1zM153.8 98.1l-1.2-.2v.4h1.2zM332.6 98.1c-.8.1-.6-.1-.8.6h.8c-.1-.4-.2-.2 0-.6zM95.6 102.3c-.8.6.1.6-1 .6v.2h1v-.8zM371.2 102.3c-.8.6.1.6-1 .6v.2h1v-.8zM199.4 96.3l-1.1.1c-.3.1-.2.1-.3.3.6 0 1.3.1 1.4-.4zM125.1 98.3h1.8v.2h-1.8zM314.4 96.3h-1.2c.1.1 1.1.9 1.2 0zM94.3 99.9h-1v.4c.6 0 1 .1 1-.4zM370 99.9h-1v.4c.5 0 .9.1 1-.4zM180.9 101.3h-1c.4.6 0 .4 1 .4v-.4zM300 94.8c-.4 0-.3-.1-.8.4h1.2c-.1-.2-.1-.4-.4-.4zM24.4 94.8c-.5 0-.3-.1-.8.4h1.2c-.1-.2-.1-.4-.4-.4zM57 98.1c-.9.1-.4-.2-.8.4.2.1.5.2.8.2-.1-.4-.2-.2 0-.6zM368 102.9h1.6v.2H368zM92.4 102.9H94v.2h-1.6zM349.7 100.7h.8v.4h-.8zM74.1 100.7h.8v.4h-.8zM360.4 100.1h.8v.4h-.8zM175.1 94.2h.8v.4h-.8zM84 101.1h-1c.1.2.1.4.4.4.3 0 .6-.1.6-.4zM38.8 96.3h-1c.1.2.1.4.4.4s.5-.1.6-.4zM359.6 101.1h-1c.1.2.2.4.4.4s.6-.1.6-.4zM77.3 102.3h-1c.1.1 0 .1.3.3.5.2.1.1.7.1v-.4zM352.9 102.3h-1c.2.1 0 .1.3.3.5.2.1.1.7.1v-.4zM386.6 97.1h-1c.2.1 0 .1.3.3.5.1.2 0 .7.1v-.4zM179.1 94.8v.4h1c-.1-.1 0-.1-.3-.3-.5-.2-.1-.1-.7-.1zM332.8 100.7c.2.5 0 .4.8.6-.4-.9.2-.5-.8-.6zM270.5 95.9h1.4v.2h-1.4zM196.2 96.5h1.4v.2h-1.4zM111 97.1h-1v.2c.3 0 .7.1 1 .2v-.4zM315.8 98.1h-.8v.4c.5-.1.7 0 .8-.4zM120.2 105.1c-.9.1-.4-.2-.8.4h.8v-.4zM395.8 105.1c-.9.1-.3-.2-.8.4h.8v-.4zM58.5 100.7v.4h.8c-.4-.6.2-.3-.8-.4zM334.1 100.7v.4h.8c-.5-.6.1-.3-.8-.4zM147.7 100.9h-.6c.2.6-.3.1.6.6v-.6zM39.5 98.5c.9-.1.4.2.8-.4-1.2 0-.6-.1-.8.4zM357 99.5h.6v.4h-.6zM42.9 101.3h.6v.4h-.6zM81.4 99.5h.6v.4h-.6zM177.1 94.8h1.2v.2h-1.2zM335.7 98.3c-.7-.1-.6-.4-.8.4l.4-.2c.4-.2.1 0 .4-.2zM60.2 98.3c-.7-.1-.6-.4-.8.4.1 0 .4-.1.4-.2.4-.2.1 0 .4-.2zM345.8 100.5c.4.6-.1.3.8.4-.5-.6.1-.3-.8-.4zM172.2 99.3c.5.6-.1.3.8.4-.4-.6.1-.3-.8-.4zM70.3 100.5c.5.6-.1.3.8.4-.5-.6.1-.3-.8-.4zM380.3 99.1h.8c-.4-.6-.4-.6-.8 0zM104.7 99.1h.8c-.4-.6-.4-.6-.8 0zM58.9 97.9c-.3 0-.2-.1-.5.1-.7.3-.3.1-.5.3.6-.1.8-.1 1-.4zM194.4 95.2h1v.2h-1zM315.4 96.9h-.6v.4c.3-.1.5-.1.6-.4zM39.9 96.9h-.6v.4c.3-.1.5-.1.6-.4zM319.1 101.3h-.6v.4c.4-.1.5 0 .6-.4zM183.6 96.7c.2.6 0 .4.6.6-.4-.8.1-.4-.6-.6zM205.5 95.6v.5h.8c-.2-.1.1 0-.4-.2l-.4-.3zM362.2 100.3c-.6.1-.3 0-.6.4h.6v-.4zM204.5 95.9c-.6.1-.3 0-.6.4h.6v-.4zM86.6 100.3c-.6.1-.3 0-.6.4h.6v-.4zM293.1 94.6h-.6c.3.4 0 .3.6.4v-.4zM17.5 94.6h-.6c.3.4 0 .3.6.4v-.4zM334.3 97.9c-.4.1 0-.1-.5.1l-.3.3c.4-.1.7 0 .8-.4zM31.4 97.1c-.4.1 0-.1-.5.1-.3.1-.2.1-.3.3.4-.1.7 0 .8-.4zM306.9 97.1c-.4.1 0-.1-.5.1l-.3.3c.4-.1.7 0 .8-.4zM410.3 104.7h1.8v.2h-1.8zM124 96.9h.8v.2h-.8zM134.8 104.7h.8v.2h-.8zM399.6 96.9h.8v.2h-.8zM168 96.7h.8v.2h-.8zM89.8 102.1h.8v.2h-.8zM74.1 97.3h.8v.2h-.8zM349.7 97.3h.8v.2h-.8zM365.4 102.1h.8v.2h-.8zM173.3 96.1h.8v.2h-.8zM283.6 98.9c-.6.5-.3-.1-.4.8.1-.1.1 0 .3-.3.2-.5 0-.2.1-.5zM8 98.9c-.6.5-.3-.1-.4.8.1-.1.1 0 .3-.3.2-.5 0-.2.1-.5zM39.5 98.5c-.6.1-.3 0-.6.4 1-.1.3.2.6-.4zM206.3 96.1c.1 0-.2.4.4.1.6-.3 0 .2.2-.3-.5.1-.1 0-.6.2zM314.4 98.9h.6c-.5-.6-.2-.6-.6 0zM38.6 98.3h.6c-.5-.6-.1-.6-.6 0zM314.2 98.3h.6c-.5-.6-.2-.6-.6 0zM85 98.3l-.4.4c1.1 0 .3 0 .6-.2l-.2-.2zM360.6 98.3l-.4.3c1.1 0 .3 0 .6-.2l-.2-.1zM384.7 101.3c-.6.1-.3 0-.6.4.4-.1.6 0 .6-.4zM75.1 98.7c-.6.1-.3 0-.6.4.4-.1.5 0 .6-.4zM350.7 98.7c-.6.1-.3 0-.6.4.4-.1.5 0 .6-.4zM109.2 101.3c-.6.1-.3 0-.6.4.4-.1.6 0 .6-.4zM175.5 93.4h.6v.2h-.6zM364.9 102.9h.6v.2h-.6zM185.7 96.3h.6v.2h-.6zM332 97.7h.6v.2h-.6zM404.9 100.1h.6v.2h-.6zM129.3 100.1h.6v.2h-.6zM89.4 102.9h.6v.2h-.6zM56.4 97.7h.6v.2h-.6zM294.3 94.6h.6v.2h-.6zM102.7 101.9h.6v.2h-.6zM378.3 101.9h.6v.2h-.6zM18.7 94.6h.6v.2h-.6zM4.8 105.1h1.6v.2H4.8zM163.3 97.3h.6v.2h-.6zM281.4 105.1h.6v.2h-.6zM344.8 98.5h.6v.2h-.6zM249.9 96.1h.6v.2h-.6zM69.3 98.5h.6v.2h-.6zM121.4 95.9l.6.4c-.2-.6.4-.4-.6-.4zM-1.1 100.5c.2.6-.4.3.6.4 0 0-.1 0-.1-.1s-.1-.1-.1-.1-.3-.1-.4-.2zM230.4 100.7c.3.4 0 .3.6.4-.3-.5 0-.2-.6-.4zM275.5 100.5c.2.6-.4.3.6.4 0 0-.1 0-.1-.1l-.5-.3zM106.6 101.1c0-.2-.4-.4-.3 0 0 .1.4.5.3 0zM382.1 101.1c0-.2-.4-.4-.3 0 .1.1.4.5.3 0zM77.3 98.9c.1.5-.1.3.4.4 0-.5.2-.2-.4-.4zM352.9 98.9c.1.5-.1.3.4.4-.1-.5.1-.2-.4-.4zM327.3 97.7c-.2-.2-.7.3-.2.1 0 0 .7.2.2-.1zM182.9 95.9c-.2-.2-.7.3-.2.1 0 0 .7.2.2-.1zM203.1 95.9c-.2-.2-.7.3-.2.1 0 0 .6.2.2-.1zM35.6 97.7c-.2-.2-.7.3-.2.1-.1 0 .5.2.2-.1zM302.8 98.1c-.2-.2-.7.3-.2.1 0 0 .6.2.2-.1zM342 97.5c-.2-.2-.7.3-.2.1-.1 0 .5.2.2-.1zM398.4 99.3c-.2-.2-.7.3-.2.1-.1 0 .5.2.2-.1zM187.9 96.9c-.2-.2-.7.3-.2.1-.1 0 .5.2.2-.1zM66.4 97.5c-.2-.2-.7.3-.2.1-.1 0 .5.2.2-.1zM27.2 98.1c-.2-.2-.7.3-.2.1 0 0 .6.2.2-.1zM110.4 98.7c-.2-.2-.7.3-.2.1 0 0 .6.2.2-.1zM386 98.7c-.2-.2-.7.3-.2.1 0 0 .6.2.2-.1zM72.3 99.3c-.2-.2-.7.3-.2.1 0 0 .5.2.2-.1zM175.9 97.1c-.2-.2-.7.3-.2.1 0 0 .5.2.2-.1zM339.2 97.7c-.2-.2-.8.3-.3.1 0 0 .6.2.3-.1zM51.8 97.7c-.2-.2-.7.3-.2.1 0 0 .6.2.2-.1zM184.5 94.6c-.2-.2-.7.3-.2.1-.1 0 .5.2.2-.1zM311.2 97.7c-.2-.2-.7.3-.2.1-.1 0 .5.2.2-.1zM63.6 97.7c-.2-.2-.7.3-.2.1-.1 0 .5.2.2-.1zM159.5 97.1c-.2-.2-.7.3-.2.1 0 0 .5.2.2-.1zM210.7 95.6c-.2-.2-.7.3-.2.1 0 0 .6.3.2-.1zM347.9 99.3c-.2-.2-.7.3-.2.1 0 0 .5.2.2-.1zM122.8 99.3c-.2-.2-.7.3-.2.1-.1 0 .5.2.2-.1zM149.7 98.1c-.2-.2-.7.3-.2.1 0 0 .6.2.2-.1zM174.5 96.7c-.2-.2-.7.3-.2.1 0 0 .6.2.2-.1zM32 97.3c-.2-.2-.7.3-.2.1-.1 0 .5.2.2-.1zM175.9 93c-.2-.2-.7.3-.2.1 0 0 .5.2.2-.1zM144.6 97.3c-.2-.2-.7.3-.2.1 0 0 .7.2.2-.1zM307.5 97.3c-.2-.2-.7.3-.2.1-.1 0 .5.2.2-.1zM151.2 97.7c0-.2-.4-.5-.3 0s-.5 0 .1.1c.2 0 .2.3.2-.1zM33.7 98.7c0-.2-.4-.5-.3 0s-.5 0 .1.1c.3 0 .2.3.2-.1zM309.4 98.7c0-.2-.4-.5-.3 0s-.5 0 .1.1c.2 0 .2.3.2-.1zM401 96.9c0-.2-.4-.5-.3 0s-.5 0 .1.1c.2 0 .2.3.2-.1zM92.6 97.9c0-.1-.2 0-.2 0s-.4-.5-.1 0c-.1 0 .3.4.3 0zM97.3 98.1c0-.1-.2 0-.2 0s-.4-.5-.1 0c0 0 .3.4.3 0zM45.5 97.3l-.2.4c.3-.1.2.1.3-.1.1-.2 0 0-.1-.3zM321.1 97.3l-.2.4c.3-.1.2.1.3-.1 0-.3.1 0-.1-.3zM229.4 99.3c0-.1-.2 0-.2 0s-.4-.5-.1.1c.3 0 .3.2.3-.1zM217.3 97.7c0-.1-.2 0-.2 0s-.4-.5-.1 0h.1c.1 0 .2.4.2 0zM368.2 97.9c0-.1-.2 0-.2 0s-.3-.5-.1 0h.1c.1 0 .2.4.2 0zM372.8 98.1c0-.1-.2 0-.2 0s-.3-.5-.1 0h.1c.1 0 .2.4.2 0zM346.2 97.5h-.2l.2.2zM70.7 97.5h-.2l.2.2zM188.1 94.4v-.2l-.3.1zM366.2 103.1c-.3-.1.2-.5 0 0-.2 0-.2 0 0 0zM409.1 96.3s-.1.1 0 0c-.1 0 0 0 0 0zM185.5 95.9c-.1 0 0 0 0 0zM142.4 98.9zM180.5 94.8s.1 0 0 0zM124 98.3c-.1 0 0 0 0 0zM184.9 98.7c-.1 0 0 0 0 0zM161.5 96.3c-.1.1 0 0 0 0zM150.7 98.1c0 .1.1 0 0 0zM150.7 98.7c0 .1.1 0 0 0zM364.2 98.7s.1 0 0 0zM180.3 95.9s.1 0 0 0zM188.5 95.9l-.4-.2.4.2zM188.5 95.9l.4.2-.4-.2zM29.5 98.1l.2.4-.2-.4z"/></svg>